<svg width="25" height="24" viewBox="0 0 25 24" fill="none" xmlns="http://www.w3.org/2000/svg">
<path fill-rule="evenodd" clip-rule="evenodd" d="M19.5999 19.16C20.1899 18.26 20.4099 17.8 20.8599 16.79C17.5399 15.53 17.0099 10.8 20.2899 8.98999C19.2899 7.72999 17.8799 7 16.5499 7C15.5899 7 14.9299 7.25001 14.3399 7.48001C13.8399 7.67001 13.3899 7.84 12.8299 7.84C12.2299 7.84 11.6999 7.65001 11.1399 7.45001C10.5299 7.23001 9.88994 7 9.08994 7C7.59994 7 6.00994 7.91 4.99994 9.47C3.57994 11.67 3.82995 15.79 6.11995 19.31C6.93995 20.57 8.03995 21.98 9.46995 22C10.0699 22.01 10.4599 21.83 10.8899 21.64C11.3799 21.42 11.9099 21.18 12.8399 21.18C13.7699 21.17 14.2899 21.42 14.7799 21.64C15.1999 21.83 15.5799 22.01 16.1699 22C17.6199 21.98 18.7799 20.42 19.5999 19.16Z" fill="black"/>
<path fill-rule="evenodd" clip-rule="evenodd" d="M16.3399 2C16.4999 3.1 16.0499 4.19001 15.4599 4.95001C14.8299 5.77001 13.7299 6.41 12.6699 6.37C12.4799 5.31 12.9699 4.21999 13.5699 3.48999C14.2399 2.68999 15.3699 2.07 16.3399 2Z" fill="black"/>
</svg>
