<svg width="24" height="25" viewBox="0 0 24 25" fill="none" xmlns="http://www.w3.org/2000/svg">
<path fill-rule="evenodd" clip-rule="evenodd" d="M11 4.5C7.13401 4.5 4 7.63401 4 11.5C4 15.366 7.13401 18.5 11 18.5C12.8859 18.5 14.5977 17.7542 15.8564 16.5414C15.8827 16.5072 15.9115 16.4742 15.9429 16.4429C15.9742 16.4115 16.0072 16.3827 16.0414 16.3564C17.2542 15.0977 18 13.3859 18 11.5C18 7.63401 14.866 4.5 11 4.5ZM18.0319 17.1177C19.2635 15.578 20 13.625 20 11.5C20 6.52944 15.9706 2.5 11 2.5C6.02944 2.5 2 6.52944 2 11.5C2 16.4706 6.02944 20.5 11 20.5C13.125 20.5 15.078 19.7635 16.6177 18.5319L20.2929 22.2071C20.6834 22.5976 21.3166 22.5976 21.7071 22.2071C22.0976 21.8166 22.0976 21.1834 21.7071 20.7929L18.0319 17.1177Z" fill="#242B42"/>
</svg>
